<mxfile host="app.diagrams.net" modified="2024-05-02T09:00:56.497Z" agent="Mozilla/5.0 (Windows NT 10.0; Win64; x64) AppleWebKit/537.36 (KHTML, like Gecko) Chrome/124.0.0.0 Safari/537.36" etag="fPshlALprlX4pMv35law" version="24.2.8" type="github">
  <diagram name="第 1 页" id="zuspS2SHmtRp9rxUnysc">
    <mxGraphModel dx="774" dy="810" grid="1" gridSize="10" guides="1" tooltips="1" connect="1" arrows="1" fold="1" page="1" pageScale="1" pageWidth="827" pageHeight="1169" math="0" shadow="0">
      <root>
        <mxCell id="0" />
        <mxCell id="1" parent="0" />
        <mxCell id="XnCvSIhtjtwX1Cepmaje-7" style="edgeStyle=orthogonalEdgeStyle;rounded=0;orthogonalLoop=1;jettySize=auto;html=1;entryX=0.5;entryY=0;entryDx=0;entryDy=0;exitX=0.5;exitY=1;exitDx=0;exitDy=0;strokeColor=#4c4848;" edge="1" parent="1" source="XnCvSIhtjtwX1Cepmaje-1" target="XnCvSIhtjtwX1Cepmaje-2">
          <mxGeometry relative="1" as="geometry" />
        </mxCell>
        <mxCell id="XnCvSIhtjtwX1Cepmaje-8" style="edgeStyle=orthogonalEdgeStyle;rounded=0;orthogonalLoop=1;jettySize=auto;html=1;entryX=0.5;entryY=0;entryDx=0;entryDy=0;strokeColor=#4c4848;" edge="1" parent="1" source="XnCvSIhtjtwX1Cepmaje-1" target="XnCvSIhtjtwX1Cepmaje-3">
          <mxGeometry relative="1" as="geometry" />
        </mxCell>
        <mxCell id="XnCvSIhtjtwX1Cepmaje-9" style="edgeStyle=orthogonalEdgeStyle;rounded=0;orthogonalLoop=1;jettySize=auto;html=1;entryX=0.5;entryY=0;entryDx=0;entryDy=0;strokeColor=#4c4848;" edge="1" parent="1" source="XnCvSIhtjtwX1Cepmaje-1" target="XnCvSIhtjtwX1Cepmaje-4">
          <mxGeometry relative="1" as="geometry" />
        </mxCell>
        <mxCell id="XnCvSIhtjtwX1Cepmaje-10" style="edgeStyle=orthogonalEdgeStyle;rounded=0;orthogonalLoop=1;jettySize=auto;html=1;entryX=0.5;entryY=0;entryDx=0;entryDy=0;exitX=0.5;exitY=1;exitDx=0;exitDy=0;strokeColor=#4c4848;" edge="1" parent="1" source="XnCvSIhtjtwX1Cepmaje-1" target="XnCvSIhtjtwX1Cepmaje-5">
          <mxGeometry relative="1" as="geometry" />
        </mxCell>
        <mxCell id="XnCvSIhtjtwX1Cepmaje-1" value="&lt;div style=&quot;font-size: 18px;&quot;&gt;空管系统&lt;/div&gt;" style="rounded=0;whiteSpace=wrap;html=1;fillColor=#0050ef;fontColor=#ffffff;strokeColor=none;fontSize=18;" vertex="1" parent="1">
          <mxGeometry x="326" y="90" width="230" height="60" as="geometry" />
        </mxCell>
        <mxCell id="XnCvSIhtjtwX1Cepmaje-13" style="edgeStyle=orthogonalEdgeStyle;rounded=0;orthogonalLoop=1;jettySize=auto;html=1;exitX=0.5;exitY=1;exitDx=0;exitDy=0;entryX=0.5;entryY=0;entryDx=0;entryDy=0;strokeColor=#4c4848;" edge="1" parent="1" source="XnCvSIhtjtwX1Cepmaje-2" target="XnCvSIhtjtwX1Cepmaje-6">
          <mxGeometry relative="1" as="geometry" />
        </mxCell>
        <mxCell id="XnCvSIhtjtwX1Cepmaje-14" style="edgeStyle=orthogonalEdgeStyle;rounded=0;orthogonalLoop=1;jettySize=auto;html=1;entryX=0.5;entryY=0;entryDx=0;entryDy=0;exitX=0.5;exitY=1;exitDx=0;exitDy=0;strokeColor=#4c4848;" edge="1" parent="1" source="XnCvSIhtjtwX1Cepmaje-2" target="XnCvSIhtjtwX1Cepmaje-11">
          <mxGeometry relative="1" as="geometry" />
        </mxCell>
        <mxCell id="XnCvSIhtjtwX1Cepmaje-15" style="edgeStyle=orthogonalEdgeStyle;rounded=0;orthogonalLoop=1;jettySize=auto;html=1;exitX=0.5;exitY=1;exitDx=0;exitDy=0;strokeColor=#4c4848;" edge="1" parent="1" source="XnCvSIhtjtwX1Cepmaje-2" target="XnCvSIhtjtwX1Cepmaje-12">
          <mxGeometry relative="1" as="geometry" />
        </mxCell>
        <mxCell id="XnCvSIhtjtwX1Cepmaje-2" value="&lt;div style=&quot;font-size: 16px;&quot;&gt;空中交通管理系统&lt;/div&gt;&lt;div style=&quot;font-size: 16px;&quot;&gt;（ATM）&lt;/div&gt;" style="rounded=0;whiteSpace=wrap;html=1;fontSize=16;fillColor=#1ba1e2;fontColor=#ffffff;strokeColor=none;" vertex="1" parent="1">
          <mxGeometry x="101" y="220" width="150" height="60" as="geometry" />
        </mxCell>
        <mxCell id="XnCvSIhtjtwX1Cepmaje-3" value="&lt;div style=&quot;font-size: 16px;&quot;&gt;通信&lt;/div&gt;" style="rounded=0;whiteSpace=wrap;html=1;fontSize=16;fillColor=#1ba1e2;fontColor=#ffffff;strokeColor=none;" vertex="1" parent="1">
          <mxGeometry x="278" y="220" width="150" height="60" as="geometry" />
        </mxCell>
        <mxCell id="XnCvSIhtjtwX1Cepmaje-4" value="&lt;div style=&quot;font-size: 16px;&quot;&gt;导航&lt;/div&gt;" style="rounded=0;whiteSpace=wrap;html=1;fontSize=16;fillColor=#1ba1e2;fontColor=#ffffff;strokeColor=none;" vertex="1" parent="1">
          <mxGeometry x="454" y="220" width="150" height="60" as="geometry" />
        </mxCell>
        <mxCell id="XnCvSIhtjtwX1Cepmaje-5" value="&lt;div style=&quot;font-size: 16px;&quot;&gt;监视&lt;/div&gt;" style="rounded=0;whiteSpace=wrap;html=1;fontSize=16;fillColor=#1ba1e2;fontColor=#ffffff;strokeColor=none;" vertex="1" parent="1">
          <mxGeometry x="631" y="220" width="150" height="60" as="geometry" />
        </mxCell>
        <mxCell id="XnCvSIhtjtwX1Cepmaje-19" style="edgeStyle=orthogonalEdgeStyle;rounded=0;orthogonalLoop=1;jettySize=auto;html=1;entryX=0.5;entryY=0;entryDx=0;entryDy=0;strokeColor=#4c4848;" edge="1" parent="1" source="XnCvSIhtjtwX1Cepmaje-6" target="XnCvSIhtjtwX1Cepmaje-16">
          <mxGeometry relative="1" as="geometry" />
        </mxCell>
        <mxCell id="XnCvSIhtjtwX1Cepmaje-20" style="edgeStyle=orthogonalEdgeStyle;rounded=0;orthogonalLoop=1;jettySize=auto;html=1;entryX=0.5;entryY=0;entryDx=0;entryDy=0;exitX=0.5;exitY=1;exitDx=0;exitDy=0;strokeColor=#4c4848;" edge="1" parent="1" source="XnCvSIhtjtwX1Cepmaje-6" target="XnCvSIhtjtwX1Cepmaje-17">
          <mxGeometry relative="1" as="geometry" />
        </mxCell>
        <mxCell id="XnCvSIhtjtwX1Cepmaje-21" style="edgeStyle=orthogonalEdgeStyle;rounded=0;orthogonalLoop=1;jettySize=auto;html=1;exitX=0.5;exitY=1;exitDx=0;exitDy=0;strokeColor=#4c4848;" edge="1" parent="1" source="XnCvSIhtjtwX1Cepmaje-6" target="XnCvSIhtjtwX1Cepmaje-18">
          <mxGeometry relative="1" as="geometry" />
        </mxCell>
        <mxCell id="XnCvSIhtjtwX1Cepmaje-6" value="空中交通服务&lt;div style=&quot;font-size: 14px;&quot;&gt;（ATS）&lt;/div&gt;" style="rounded=0;whiteSpace=wrap;html=1;fillColor=#99CCFF;strokeColor=none;fontSize=14;fontStyle=0" vertex="1" parent="1">
          <mxGeometry x="67" y="340" width="130" height="60" as="geometry" />
        </mxCell>
        <mxCell id="XnCvSIhtjtwX1Cepmaje-11" value="空中交通流量管理&lt;div&gt;（ATFM）&lt;/div&gt;" style="rounded=0;whiteSpace=wrap;html=1;fillColor=#99CCFF;strokeColor=none;fontSize=14;" vertex="1" parent="1">
          <mxGeometry x="257" y="340" width="130" height="60" as="geometry" />
        </mxCell>
        <mxCell id="XnCvSIhtjtwX1Cepmaje-12" value="空域管理&lt;div&gt;（ASM）&lt;/div&gt;" style="rounded=0;whiteSpace=wrap;html=1;fillColor=#99CCFF;strokeColor=none;fontSize=14;" vertex="1" parent="1">
          <mxGeometry x="455" y="340" width="130" height="60" as="geometry" />
        </mxCell>
        <mxCell id="XnCvSIhtjtwX1Cepmaje-16" value="空中交通管制&lt;div style=&quot;font-size: 14px;&quot;&gt;（ATC）&lt;/div&gt;" style="rounded=0;whiteSpace=wrap;html=1;fillColor=#dae8fc;strokeColor=none;fontSize=14;" vertex="1" parent="1">
          <mxGeometry x="27" y="449" width="130" height="60" as="geometry" />
        </mxCell>
        <mxCell id="XnCvSIhtjtwX1Cepmaje-17" value="飞行情报服务&lt;div style=&quot;font-size: 14px;&quot;&gt;（FIS）&lt;/div&gt;" style="rounded=0;whiteSpace=wrap;html=1;fillColor=#dae8fc;strokeColor=none;fontSize=14;" vertex="1" parent="1">
          <mxGeometry x="217" y="449" width="130" height="60" as="geometry" />
        </mxCell>
        <mxCell id="XnCvSIhtjtwX1Cepmaje-18" value="告警服务&lt;div&gt;（AS）&lt;/div&gt;" style="rounded=0;whiteSpace=wrap;html=1;fillColor=#dae8fc;strokeColor=none;fontSize=14;" vertex="1" parent="1">
          <mxGeometry x="415" y="449" width="130" height="60" as="geometry" />
        </mxCell>
      </root>
    </mxGraphModel>
  </diagram>
</mxfile>
